<svg id="Capa_1" enable-background="new 0 0 512 512" height="512" viewBox="0 0 512 512" width="512" xmlns="http://www.w3.org/2000/svg"><g><g><path d="m482.654 437.328h-99.27c-7.111 0-12.876-5.765-12.876-12.876v-14.73c0-7.111 5.765-12.876 12.876-12.876h99.27c7.111 0 12.876 5.765 12.876 12.876v14.73c0 7.111-5.765 12.876-12.876 12.876z" fill="#eab14d"/><path d="m482.654 396.846h-20.584c7.111 0 12.876 5.765 12.876 12.876v14.73c0 7.111-5.765 12.876-12.876 12.876h20.583c7.111 0 12.876-5.765 12.876-12.876v-14.73c.001-7.111-5.764-12.876-12.875-12.876z" fill="#e49542"/><path d="m499.124 356.364h-99.27c-7.111 0-12.876-5.765-12.876-12.876v-14.73c0-7.111 5.765-12.876 12.876-12.876h99.27c7.111 0 12.876 5.765 12.876 12.876v14.73c0 7.111-5.765 12.876-12.876 12.876z" fill="#eab14d"/><path d="m499.124 315.882h-20.583c7.111 0 12.876 5.765 12.876 12.876v14.73c0 7.111-5.765 12.876-12.876 12.876h20.583c7.111 0 12.876-5.765 12.876-12.876v-14.73c0-7.111-5.765-12.876-12.876-12.876z" fill="#e49542"/><path d="m468.242 275.401h-99.27c-7.111 0-12.876-5.765-12.876-12.876v-14.73c0-7.111 5.765-12.876 12.876-12.876h99.27c7.111 0 12.876 5.765 12.876 12.876v14.73c0 7.111-5.765 12.876-12.876 12.876z" fill="#eab14d"/><path d="m468.242 234.919h-20.583c7.111 0 12.876 5.765 12.876 12.876v14.73c0 7.111-5.765 12.876-12.876 12.876h20.583c7.111 0 12.876-5.765 12.876-12.876v-14.73c0-7.111-5.765-12.876-12.876-12.876z" fill="#e49542"/><path d="m482.654 396.846h-99.27c-7.111 0-12.876-5.765-12.876-12.876v-14.73c0-7.111 5.765-12.876 12.876-12.876h99.27c7.111 0 12.876 5.765 12.876 12.876v14.73c0 7.111-5.765 12.876-12.876 12.876z" fill="#f6e266"/><path d="m482.654 356.364h-20.584c7.111 0 12.876 5.765 12.876 12.876v14.73c0 7.111-5.765 12.876-12.876 12.876h20.583c7.111 0 12.876-5.765 12.876-12.876v-14.73c.001-7.111-5.764-12.876-12.875-12.876z" fill="#ecbe6b"/><path d="m482.654 315.882h-99.27c-7.111 0-12.876-5.765-12.876-12.876v-14.73c0-7.111 5.765-12.876 12.876-12.876h99.27c7.111 0 12.876 5.765 12.876 12.876v14.73c0 7.112-5.765 12.876-12.876 12.876z" fill="#f6e266"/><path d="m482.654 275.401h-20.584c7.111 0 12.876 5.765 12.876 12.876v14.73c0 7.111-5.765 12.876-12.876 12.876h20.583c7.111 0 12.876-5.765 12.876-12.876v-14.73c.001-7.112-5.764-12.876-12.875-12.876z" fill="#ecbe6b"/><path d="m482.654 234.919h-99.27c-7.111 0-12.876-5.765-12.876-12.876v-14.73c0-7.111 5.765-12.876 12.876-12.876h99.27c7.111 0 12.876 5.765 12.876 12.876v14.73c0 7.111-5.765 12.876-12.876 12.876z" fill="#f6e266"/><path d="m482.654 194.437h-20.584c7.111 0 12.876 5.765 12.876 12.876v14.73c0 7.111-5.765 12.876-12.876 12.876h20.583c7.111 0 12.876-5.765 12.876-12.876v-14.73c.001-7.111-5.764-12.876-12.875-12.876z" fill="#ecbe6b"/></g><g><path d="m100.813 437.328h-87.937c-7.111 0-12.876-5.765-12.876-12.876v-14.73c0-7.111 5.765-12.876 12.876-12.876h87.938c7.111 0 12.876 5.765 12.876 12.876v14.73c-.001 7.111-5.765 12.876-12.877 12.876z" fill="#eab14d"/><path d="m100.813 396.846h-38.841v40.482h38.841c7.111 0 12.876-5.765 12.876-12.876v-14.73c0-7.112-5.764-12.876-12.876-12.876z" fill="#e49542"/><path d="m117.284 356.364h-87.938c-7.111 0-12.876-5.765-12.876-12.876v-14.73c0-7.111 5.765-12.876 12.876-12.876h87.938c7.111 0 12.876 5.765 12.876 12.876v14.73c0 7.111-5.765 12.876-12.876 12.876z" fill="#eab14d"/><path d="m117.284 315.882h-55.312v40.482h55.311c7.111 0 12.876-5.765 12.876-12.876v-14.73c.001-7.111-5.764-12.876-12.875-12.876z" fill="#e49542"/><path d="m117.284 275.401h-87.938c-7.111 0-12.876-5.765-12.876-12.876v-14.73c0-7.111 5.765-12.876 12.876-12.876h87.938c7.111 0 12.876 5.765 12.876 12.876v14.73c0 7.111-5.765 12.876-12.876 12.876z" fill="#eab14d"/><path d="m117.284 234.919h-55.312v40.482h55.311c7.111 0 12.876-5.765 12.876-12.876v-14.73c.001-7.111-5.764-12.876-12.875-12.876z" fill="#e49542"/><path d="m100.813 396.846h-87.937c-7.111 0-12.876-5.765-12.876-12.876v-14.73c0-7.111 5.765-12.876 12.876-12.876h87.938c7.111 0 12.876 5.765 12.876 12.876v14.73c-.001 7.111-5.765 12.876-12.877 12.876z" fill="#f6e266"/><path d="m100.813 356.364h-38.841v40.482h38.841c7.111 0 12.876-5.765 12.876-12.876v-14.73c0-7.111-5.764-12.876-12.876-12.876z" fill="#ecbe6b"/><path d="m100.813 315.882h-87.937c-7.111 0-12.876-5.764-12.876-12.875v-14.73c0-7.111 5.765-12.876 12.876-12.876h87.938c7.111 0 12.876 5.765 12.876 12.876v14.73c-.001 7.111-5.765 12.875-12.877 12.875z" fill="#f6e266"/><path d="m100.813 275.401h-38.832c-.001.109-.008.216-.008.325v40.156h38.841c7.111 0 12.876-5.765 12.876-12.876v-14.73c-.001-7.11-5.765-12.875-12.877-12.875z" fill="#ecbe6b"/></g><path d="m418.996 466.313h-325.992c-4.6 0-8.328-3.729-8.328-8.328v-403.97c0-4.6 3.729-8.328 8.328-8.328h325.992c4.6 0 8.328 3.729 8.328 8.328v403.97c0 4.599-3.729 8.328-8.328 8.328z" fill="#ecf4ff"/><path d="m418.996 45.687h-22.482c4.6 0 8.328 3.728 8.328 8.328v403.97c0 4.6-3.729 8.328-8.328 8.328h22.482c4.6 0 8.328-3.729 8.328-8.328v-403.97c0-4.6-3.729-8.328-8.328-8.328z" fill="#ddeafb"/><g><g><path d="m151.22 183.279c-9.366 0-14.889-1.038-23.545-6.7-3.571-2.335-4.572-7.124-2.237-10.695 2.336-3.572 7.124-4.574 10.696-2.236 5.884 3.847 8.269 4.239 15.916 4.176 7.849-.052 12.403-5.903 13.313-11.318.45-2.678.626-9.216-7.446-12.069-11.948-4.222-18.858-7.542-23.852-11.46-6.032-4.731-8.79-12.921-7.198-21.371 1.731-9.185 8.131-16.496 16.703-19.078 16.098-4.847 31.861 2.912 32.524 3.244 3.814 1.913 5.355 6.556 3.442 10.371-1.908 3.804-6.531 5.346-10.342 3.456-.207-.1-11.096-5.312-21.167-2.275-3.618 1.09-5.459 4.404-5.975 7.144-.512 2.717.096 5.21 1.55 6.35 4.437 3.481 12.329 6.527 19.464 9.049 12.672 4.479 19.719 16.214 17.536 29.201-2.009 11.949-12.426 24.102-28.449 24.208-.316.002-.627.003-.933.003z" fill="#2b4d66"/></g><g><path d="m152.101 194.44c-4.267 0-7.726-3.459-7.726-7.726v-98.244c0-4.268 3.459-7.726 7.726-7.726s7.726 3.459 7.726 7.726v98.243c0 4.268-3.459 7.727-7.726 7.727z" fill="#2b4d66"/></g></g><g><path d="m369.421 101.227h-90.043c-4.268 0-7.726-3.459-7.726-7.726 0-4.268 3.459-7.726 7.726-7.726h90.043c4.268 0 7.726 3.459 7.726 7.726s-3.458 7.726-7.726 7.726z" fill="#2b4d66"/></g><g><path d="m369.421 138.931h-120.949c-4.267 0-7.726-3.459-7.726-7.726 0-4.268 3.459-7.726 7.726-7.726h120.949c4.268 0 7.726 3.459 7.726 7.726s-3.458 7.726-7.726 7.726z" fill="#2b4d66"/></g><g><path d="m369.421 176.634h-120.949c-4.267 0-7.726-3.459-7.726-7.726 0-4.268 3.459-7.726 7.726-7.726h120.949c4.268 0 7.726 3.459 7.726 7.726s-3.458 7.726-7.726 7.726z" fill="#2b4d66"/></g><g><path d="m178.724 419.073h-48.166c-3.127 0-5.662-2.535-5.662-5.662v-73.824c0-3.127 2.535-5.662 5.662-5.662h48.166c3.127 0 5.662 2.535 5.662 5.662v73.824c0 3.127-2.535 5.662-5.662 5.662z" fill="#78c2a4"/><path d="m178.724 333.924h-17.993c3.127 0 5.662 2.535 5.662 5.662v73.824c0 3.127-2.535 5.662-5.662 5.662h17.993c3.127 0 5.662-2.535 5.662-5.662v-73.824c0-3.127-2.535-5.662-5.662-5.662z" fill="#66b394"/></g><g><path d="m280.083 419.073h-48.166c-3.127 0-5.662-2.535-5.662-5.662v-94.428c0-3.127 2.535-5.662 5.662-5.662h48.166c3.127 0 5.662 2.535 5.662 5.662v94.428c0 3.127-2.535 5.662-5.662 5.662z" fill="#f6e266"/><path d="m280.083 313.321h-17.993c3.127 0 5.662 2.535 5.662 5.662v94.428c0 3.127-2.535 5.662-5.662 5.662h17.993c3.127 0 5.662-2.535 5.662-5.662v-94.428c0-3.128-2.535-5.662-5.662-5.662z" fill="#ecbe6b"/></g><path d="m381.442 419.073h-48.166c-3.127 0-5.662-2.535-5.662-5.662v-135.635c0-3.127 2.535-5.662 5.662-5.662h48.166c3.127 0 5.662 2.535 5.662 5.662v135.635c0 3.127-2.535 5.662-5.662 5.662z" fill="#dd636e"/><path d="m381.442 272.113h-17.993c3.127 0 5.662 2.535 5.662 5.662v135.635c0 3.127-2.535 5.662-5.662 5.662h17.993c3.127 0 5.662-2.535 5.662-5.662v-135.635c0-3.127-2.535-5.662-5.662-5.662z" fill="#c63d4f"/></g></svg>