<?xml version="1.0"?>
<svg xmlns="http://www.w3.org/2000/svg" xmlns:xlink="http://www.w3.org/1999/xlink" xmlns:svgjs="http://svgjs.com/svgjs" version="1.1" width="512" height="512" x="0" y="0" viewBox="0 0 64 64" style="enable-background:new 0 0 512 512" xml:space="preserve" class=""><g><g xmlns="http://www.w3.org/2000/svg" id="healthcare-covid19-coronavirus-hand-hearth"><path d="m15.71 30.27-4.53-13.05a3.125 3.125 0 0 0 -3.56-2.32 3.007 3.007 0 0 0 -2.28 3.71l4.66 14.39z" fill="#ffac96" data-original="#ffac96" style="" class=""/><path d="m48.29 30.27 4.53-13.05a3.125 3.125 0 0 1 3.56-2.32 3.007 3.007 0 0 1 2.28 3.71l-4.66 14.39z" fill="#ffac96" data-original="#ffac96" style="" class=""/><path d="m25.046 35.682-8.84-5.182a2.994 2.994 0 0 0 -3.8.679l-3.226-9.959a3.125 3.125 0 0 0 -3.56-2.32 3.007 3.007 0 0 0 -2.28 3.71l4.35 16.23a3.948 3.948 0 0 0 1.21 1.96l6.76 6.01a4 4 0 0 1 1.34 2.99v3.2h12v-10.416a8 8 0 0 0 -3.954-6.902z" fill="#ffbcab" data-original="#ffbcab" style="" class=""/><path d="m58.38 18.9a3.125 3.125 0 0 0 -3.56 2.32l-3.23 9.959a2.994 2.994 0 0 0 -3.8-.679l-8.84 5.182a8 8 0 0 0 -3.95 6.902v10.416h12v-3.2a4 4 0 0 1 1.34-2.99l6.76-6.01a3.948 3.948 0 0 0 1.21-1.96l4.35-16.23a3.007 3.007 0 0 0 -2.28-3.71z" fill="#ffbcab" data-original="#ffbcab" style="" class=""/><path d="m34 53v8h14v-8h-1-12z" fill="#daa520" data-original="#006df0" style="" class=""/><path d="m30 53h-1-12-1v8h14z" fill="#daa520" data-original="#006df0" style="" class=""/><path d="m45.44 18.56-.71.71-12.73 12.73-12.73-12.73-.71-.71a9 9 0 1 1 12.73-12.72l.71.71.71-.71a9 9 0 1 1 12.73 12.72z" fill="#d80027" data-original="#d80027" style="" class=""/><path d="m45.44 5.84a8.9 8.9 0 0 0 -7.368-2.579 8.994 8.994 0 0 1 5.368 15.3l-.71.71-11.73 11.729 1 1 12.73-12.73.71-.71a9 9 0 0 0 0-12.72z" fill="#bd0022" data-original="#bd0022" style=""/><path d="m34 22v-4h4v-4h-4v-4h-4v4h-4v4h4v4z" fill="#f1f2f2" data-original="#f1f2f2" style=""/><g fill="#ffac96"><path d="m50.794 33.7-6.684 3.7a.867.867 0 0 0 -.341 1.138.865.865 0 0 0 1.207.362l5.818-3.2a3 3 0 0 0 1.319-3.609 2.971 2.971 0 0 1 -1.319 1.609z" fill="#ffac96" data-original="#ffac96" style="" class=""/><path d="m13.206 33.7 6.684 3.7a.867.867 0 0 1 .341 1.138.865.865 0 0 1 -1.207.362l-5.818-3.2a3 3 0 0 1 -1.319-3.609 2.971 2.971 0 0 0 1.319 1.609z" fill="#ffac96" data-original="#ffac96" style="" class=""/></g></g></g></svg>
