<?xml version="1.0"?>
<svg xmlns="http://www.w3.org/2000/svg" xmlns:xlink="http://www.w3.org/1999/xlink" xmlns:svgjs="http://svgjs.com/svgjs" version="1.1" width="512" height="512" x="0" y="0" viewBox="0 0 512 512" style="enable-background:new 0 0 512 512" xml:space="preserve" class=""><g><g xmlns="http://www.w3.org/2000/svg"><path d="m45.49 414.364h-36.09c-1.05 0-1.9-.851-1.9-1.9v-121.058c0-1.05.851-1.9 1.9-1.9h36.09z" fill="#d0e2e7" data-original="#d0e2e7" style="" class=""/><path d="m167.454 248.785v-21.621c0-5.557 4.505-10.062 10.062-10.062h156.968c5.557 0 10.062 4.505 10.062 10.062v21.621c0 5.557-4.505 10.062-10.062 10.062h-156.968c-5.557 0-10.062-4.505-10.062-10.062z" fill="#f1f4f6" data-original="#f1f4f6" style="" class=""/><path d="m334.484 217.103h-29.938v11.683c0 5.557-4.505 10.062-10.062 10.062h-127.03v9.938c0 5.557 4.505 10.062 10.062 10.062h156.968c5.557 0 10.062-4.505 10.062-10.062v-21.621c-.001-5.558-4.505-10.062-10.062-10.062z" fill="#dfeaef" data-original="#dfeaef" style="" class=""/><path d="m55.001 430.48h40.233v-157.091h-40.233c-5.253 0-9.511 4.258-9.511 9.511v138.068c0 5.254 4.258 9.512 9.511 9.512z" fill="#f1f4f6" data-original="#f1f4f6" style="" class=""/><path d="m315.931 217.103h-119.862v-21.46c0-3.372 2.733-6.105 6.105-6.105h107.652c3.371 0 6.105 2.733 6.105 6.105z" fill="#9bb9c1" data-original="#9bb9c1" style="" class=""/><path d="m216.069 103.322h79.861v21.68c0 3.372-2.733 6.105-6.105 6.105h-67.652c-3.372 0-6.105-2.733-6.105-6.105v-21.68z" fill="#daa520" data-original="#e28086" style="" class=""/><path d="m238.807 131.106h34.386v58.432h-34.386z" fill="#d0e2e7" data-original="#d0e2e7" style="" class=""/><path d="m357.955 64.52h-203.91c-10.715 0-19.401 8.686-19.401 19.401 0 10.715 8.686 19.401 19.401 19.401h203.911c10.715 0 19.401-8.686 19.401-19.401-.001-10.715-8.687-19.401-19.402-19.401z" fill="#daa520" data-original="#e28086" style="" class=""/><path d="m357.956 64.52h-20.609c-.317 10.438-8.877 18.802-19.392 18.802h-183.302c-.006.199-.01.399-.01.599 0 10.715 8.686 19.401 19.401 19.401h203.911c10.715 0 19.401-8.686 19.401-19.401s-8.686-19.401-19.4-19.401z" fill="#daa520" data-original="#dd636e" style="" class=""/><path d="m377.384 447.48h-242.768c-5.253 0-9.511-4.258-9.511-9.511v-169.612c0-5.253 4.258-9.511 9.511-9.511h242.767c5.253 0 9.511 4.258 9.511 9.511v169.613c0 5.252-4.258 9.51-9.51 9.51z" fill="#d0e2e7" data-original="#d0e2e7" style="" class=""/><path d="m377.384 258.847h-30.49v106.199c0 34.482-27.953 62.435-62.435 62.435h-159.353v10.49c0 5.252 4.258 9.51 9.51 9.51h242.767c5.252 0 9.51-4.258 9.51-9.51v-169.614c.001-5.252-4.257-9.51-9.509-9.51z" fill="#b4d0d5" data-original="#b4d0d5" style="" class=""/><path d="m95.234 273.389h29.872v157.091h-29.872z" fill="#9bb9c1" transform="matrix(-1 0 0 -1 220.34 703.87)" data-original="#9bb9c1" style="" class=""/><path d="m466.51 414.364h36.09c1.05 0 1.9-.851 1.9-1.9v-121.058c0-1.05-.851-1.9-1.9-1.9h-36.09z" fill="#d0e2e7" data-original="#d0e2e7" style="" class=""/><path d="m456.999 430.48h-40.233v-157.091h40.233c5.253 0 9.511 4.258 9.511 9.511v138.068c0 5.254-4.258 9.512-9.511 9.512z" fill="#f1f4f6" data-original="#f1f4f6" style="" class=""/><path d="m386.894 273.389h29.872v157.091h-29.872z" fill="#9bb9c1" data-original="#9bb9c1" style="" class=""/><path d="m293.015 317.307c20.55 20.55 20.896 53.521.773 73.644s-53.094 19.777-73.644-.773-43.766-86.242-28.568-101.439c15.197-15.198 80.889 8.019 101.439 28.568z" fill="#80cb8e" data-original="#80cb8e" style=""/><path d="m293.015 317.307c-9.301-9.301-27.849-19.148-46.778-25.732 2.594 1.912 4.879 3.834 6.778 5.732 20.549 20.55 20.896 53.521.773 73.644-10.281 10.281-23.916 15.218-37.534 14.848 1.301 1.622 2.601 3.089 3.89 4.379 20.55 20.55 53.521 20.896 73.644.773s19.776-53.094-.773-73.644z" fill="#66b49d" data-original="#66b49d" style="" class=""/><circle cx="70.362" cy="303.039" r="7.5" fill="#262626" data-original="#000000" style="" class=""/><circle cx="70.362" cy="335.636" r="7.5" fill="#262626" data-original="#000000" style="" class=""/><circle cx="70.362" cy="368.234" r="7.5" fill="#262626" data-original="#000000" style="" class=""/><circle cx="70.362" cy="400.831" r="7.5" fill="#262626" data-original="#000000" style="" class=""/><circle cx="441.638" cy="303.039" r="7.5" fill="#262626" data-original="#000000" style="" class=""/><circle cx="441.638" cy="335.636" r="7.5" fill="#262626" data-original="#000000" style="" class=""/><circle cx="441.638" cy="368.234" r="7.5" fill="#262626" data-original="#000000" style="" class=""/><circle cx="441.638" cy="400.831" r="7.5" fill="#262626" data-original="#000000" style="" class=""/><path d="m218.594 398.938c3.16 2.677 7.893 2.286 10.57-.875 2.678-3.16 2.286-7.893-.875-10.57-13.006-11.026-23.646-36.042-28.671-52.261-7.14-23.043-6.425-37.504-2.739-41.19 3.685-3.685 18.147-4.4 41.189 2.74 20.639 6.395 40.589 16.775 49.643 25.829 15.984 15.984 17.547 40.287 5.617 57.275l-2.483-2.483v-36.695c0-4.142-3.357-7.5-7.5-7.5s-7.5 3.358-7.5 7.5v21.695l-12.886-12.886v-22.736c0-4.142-3.357-7.5-7.5-7.5s-7.5 3.358-7.5 7.5v7.736l-28.544-28.544c-2.93-2.929-7.678-2.929-10.607 0s-2.929 7.678 0 10.606l18.315 18.315h-6.675c-4.143 0-7.5 3.358-7.5 7.5s3.357 7.5 7.5 7.5h21.675l11.81 11.81h-15.383c-4.143 0-7.5 3.358-7.5 7.5s3.357 7.5 7.5 7.5h30.383l13.79 13.79c-7.772 5.466-17.118 8.195-26.946 7.785-4.148-.187-7.636 3.038-7.81 7.177-.175 4.139 3.038 7.635 7.177 7.81 13.768.582 27.386-3.687 38.293-12.057l26.575 26.574c2.93 2.929 7.678 2.929 10.607 0s2.929-7.678 0-10.606l-26.564-26.564c17.68-22.884 16.185-56.685-5.738-78.609-10.79-10.789-32.696-22.388-55.811-29.55-15.754-4.88-44.007-11.244-56.236.982-12.226 12.227-5.862 40.481-.981 56.236 5.982 19.3 17.874 46.192 33.305 59.266z" fill="#262626" data-original="#000000" style="" class=""/><path d="m9.4 421.864h28.612c.467 8.966 7.909 16.116 16.988 16.116h62.605c.006 9.375 7.635 17 17.01 17h242.768c9.375 0 17.004-7.625 17.01-17h62.605c9.08 0 16.521-7.151 16.988-16.116h28.614c5.184 0 9.4-4.217 9.4-9.401v-121.057c0-5.184-4.217-9.4-9.4-9.4h-28.612c-.467-8.966-7.909-16.117-16.988-16.117h-62.784c-1.199-8.214-8.29-14.542-16.831-14.542h-25.524c.254-1.732.187-.42.187-24.183 0-9.684-7.878-17.562-17.562-17.562h-11.054v-13.96c0-7.501-6.103-13.604-13.604-13.604h-29.133v-43.432h9.133c7.502 0 13.604-6.103 13.604-13.604v-14.18h54.524c14.833 0 26.901-12.068 26.901-26.901s-12.068-26.901-26.901-26.901h-156.273c-4.143 0-7.5 3.358-7.5 7.5s3.357 7.5 7.5 7.5h156.272c6.563 0 11.901 5.339 11.901 11.901 0 6.563-5.339 11.901-11.901 11.901h-203.91c-6.563 0-11.901-5.339-11.901-11.901s5.339-11.901 11.901-11.901h12.638c4.143 0 7.5-3.358 7.5-7.5s-3.357-7.5-7.5-7.5h-12.638c-14.833 0-26.901 12.068-26.901 26.901s12.068 26.901 26.901 26.901h54.524v14.18c0 7.501 6.103 13.604 13.604 13.604h9.133v43.432h-29.133c-7.502 0-13.604 6.103-13.604 13.604v13.96h-11.054c-9.684 0-17.562 7.878-17.562 17.562 0 24.025-.065 22.468.187 24.183h-25.525c-8.541 0-15.632 6.328-16.831 14.542h-62.783c-9.08 0-16.521 7.151-16.988 16.117h-28.613c-5.184 0-9.4 4.217-9.4 9.4v121.057c0 5.184 4.217 9.401 9.4 9.401zm108.206 1.116h-14.873v-142.091h14.873zm379.394-16.116h-22.989v-109.858h22.989zm-37.989-123.963v138.068c0 1.109-.902 2.011-2.012 2.011h-32.732v-142.091h32.732c1.109 0 2.012.903 2.012 2.012zm-235.442-172.079h64.861v12.785h-64.861zm22.738 27.784h19.387v43.432h-19.387zm-42.738 58.432h104.861v12.564h-104.861zm-28.615 51.747v-21.621c0-1.413 1.149-2.562 2.562-2.562h156.969c1.412 0 2.562 1.149 2.562 2.562v21.621c0 1.413-1.149 2.562-2.562 2.562h-156.969c-1.412 0-2.562-1.149-2.562-2.562zm-42.348 19.572c0-1.109.901-2.011 2.01-2.011h242.768c1.108 0 2.01.902 2.01 2.011v34.681c0 4.142 3.357 7.5 7.5 7.5s7.5-3.358 7.5-7.5v-22.149h14.873v142.091h-14.873v-84.942c0-4.142-3.357-7.5-7.5-7.5s-7.5 3.358-7.5 7.5v99.931c0 1.109-.901 2.011-2.01 2.011h-242.768c-1.108 0-2.01-.902-2.01-2.011zm-79.617 14.544c0-1.109.902-2.012 2.012-2.012h32.732v142.091h-32.732c-1.109 0-2.012-.902-2.012-2.011zm-37.989 14.105h22.989v109.858h-22.989z" fill="#262626" data-original="#000000" style="" class=""/></g></g></svg>
