<?xml version="1.0"?>
<svg xmlns="http://www.w3.org/2000/svg" xmlns:xlink="http://www.w3.org/1999/xlink" xmlns:svgjs="http://svgjs.com/svgjs" version="1.1" width="512" height="512" x="0" y="0" viewBox="0 0 511.29 511.29" style="enable-background:new 0 0 512 512" xml:space="preserve" class=""><g><g xmlns="http://www.w3.org/2000/svg"><path d="m46.354 160.443h373.257v247.7h-373.257z" fill="#d7f0f0" data-original="#d7f0f0" style="" class=""/><path d="m223.957 160.443h195.654v247.7h-195.654z" fill="#b0e9e7" data-original="#b0e9e7" style="" class=""/><path d="m434.611 423.143h-403.257v-277.7h403.257zm-373.257-30h343.257v-217.7h-343.257z" fill="#daa520" data-original="#004c75" style="" class=""/><path d="m434.611 145.443h-210.654v30h180.654v217.7h-180.654v30h210.654z" fill="#daa520" data-original="#00385b" style="" class=""/><path d="m462.34 404.588c-4.429-7.166-12.102-11.444-20.526-11.444h-417.663c-8.424 0-16.097 4.278-20.525 11.444s-4.823 15.942-1.057 23.476l15.567 31.136c11.687 23.373 35.18 37.893 61.313 37.893h307.067c26.132 0 49.625-14.52 61.313-37.893l15.566-31.135c3.768-7.535 3.373-16.311-1.055-23.477z" fill="#daa520" data-original="#00385b" style="" class=""/><path d="m462.34 404.588c-4.429-7.166-12.102-11.444-20.526-11.444h-217.857v103.948h162.56c26.132 0 49.625-14.52 61.313-37.893l15.566-31.135c3.767-7.534 3.372-16.31-1.056-23.476z" fill="#daa520" data-original="#00243e" style="" class=""/><path d="m367.624 14.198c-79.219 0-143.667 64.448-143.667 143.667s64.448 143.667 143.667 143.667c79.218 0 143.666-64.448 143.666-143.667s-64.449-143.667-143.666-143.667z" fill="#ffe7b9" data-original="#ffe7b9" style=""/><path d="m367.624 14.198v287.334c79.218 0 143.666-64.448 143.666-143.667s-64.449-143.667-143.666-143.667z" fill="#ffcd70" data-original="#ffcd70" style="" class=""/><path d="m450.186 172.865v-30h-19.554c-1.615-6.785-4.291-13.162-7.858-18.937l13.837-13.837-21.213-21.213-13.837 13.837c-5.775-3.567-12.152-6.242-18.937-7.858v-19.554h-30v19.554c-6.785 1.615-13.162 4.291-18.937 7.858l-13.837-13.837-21.213 21.213 13.837 13.837c-3.567 5.776-6.243 12.152-7.859 18.938h-19.553v30h19.553c1.615 6.785 4.291 13.162 7.859 18.938l-13.837 13.837 21.213 21.213 13.837-13.837c5.776 3.567 12.152 6.243 18.937 7.858v19.554h30v-19.554c6.785-1.615 13.161-4.291 18.937-7.858l13.837 13.837 21.213-21.213-13.837-13.837c3.567-5.776 6.243-12.152 7.858-18.937h19.554zm-82.562 19.78c-19.179 0-34.781-15.603-34.781-34.78s15.603-34.78 34.781-34.78 34.78 15.603 34.78 34.78-15.603 34.78-34.78 34.78z" fill="#ff8852" data-original="#ff8852" style=""/><path d="m450.186 172.865v-30h-19.554c-1.615-6.785-4.291-13.162-7.858-18.937l13.837-13.837-21.213-21.213-13.837 13.837c-5.775-3.567-12.152-6.242-18.937-7.858v-19.554h-15v47.782c19.178 0 34.78 15.603 34.78 34.78s-15.603 34.78-34.78 34.78v47.782h15v-19.554c6.785-1.615 13.161-4.291 18.937-7.858l13.837 13.837 21.213-21.213-13.837-13.837c3.567-5.776 6.243-12.152 7.858-18.937z" fill="#ff651d" data-original="#ff651d" style=""/></g></g></svg>
